<?xml version="1.0" encoding="UTF-8"?>
<!-- Generator: Adobe Illustrator 23.0.1, SVG Export Plug-In . SVG Version: 6.00 Build 0)  -->
<svg version="1.1" id="Layer_1" xmlns="http://www.w3.org/2000/svg" xmlns:xlink="http://www.w3.org/1999/xlink" x="0px" y="0px" viewBox="0 0 864 864" style="enable-background:new 0 0 864 864;" xml:space="preserve">
<path d="M143.5,405.5c1,0,1.9,0,2.9,0c9.6-0.2,19.2-0.5,28.7-0.7c6.9-0.2,13.8-0.3,20.7-0.5c9.2-0.2,18.4-0.4,27.6-0.6  c3.9-0.1,7.8-0.2,11.7-0.3c0.7,0,1.5,0,2.3,0c0.2,2.8-0.4,5.5-0.5,8.1c-0.2,2.7-0.5,5.4-0.8,8.2c0.6-0.2,1-0.3,1.3-0.5  c1.9-0.9,3.8-1.7,5.7-2.7c1.1-0.5,2.3-1.1,3.4-1.8c2.1-1.4,4-2.8,6.1-4.3c0.3-0.2,0.6-0.5,0.9-0.8c-1.3-1.7-2.5-3.4-3.8-5  c-0.7,0.2-1.2,0.3-1.8,0.5c-0.9-1.3-0.9-1.3,0.2-2.5c-0.4-1-1.2-1.8-1.9-2.7c-0.5,0.1-0.9,0.2-1.5,0.4c-0.3-0.4-0.5-0.8-0.9-1.3  c1.4-1.2,0.9-3,1.5-4.5c1.4-0.1,2.2,1.2,3.5,1.2c0.1-2.4,0-2.6-0.8-4.1c-0.8-1.3-1.5-2.7-2.5-4.1c-1.4,0.9-2.6,1.9-4.1,2.6  c-0.3-0.7-0.6-1.3-0.9-2.1c-1.4,0.9-2,2.4-3.4,3.4c-0.2-1.1-0.3-2-0.5-3.1c-1.4,0.3-2.2,1.3-3.5,1.8c-0.1-0.4-0.3-0.8-0.3-1.2  c0.1-0.8,0.2-1.6,0.4-2.4c0.2-0.7,0.6-1.3,0.9-2.1c-1.3-0.3-2.4,0.7-3.7,0.3c0.1-2.4,1.4-4.3,2.8-6.4c-1.4,0.1-2,1.2-3,1.5  c-0.5-0.3-0.2-0.6-0.1-0.9c0.5-1.2,1-2.3,1.5-3.5c0.1-0.3,0.2-0.7,0.4-1.2c-1.4,0.5-2.5,1.5-4,0.7c1-2.8,2.4-5.3,2.7-8.3  c-0.7-0.3-1.2,0.2-1.7,0.4c-0.5,0.2-0.9,0.4-1.6,0.8c-0.1-0.9,0.4-1.5,0.6-2.2c0.3-0.8,0.6-1.5,0.8-2.3c0.2-0.7,0.4-1.4,0.6-2.3  c-1.3,0.1-1.9,1.2-3.1,1.4c0.1-2.6,0.8-5,0.9-7.5c-0.9-0.1-1,0.9-1.8,1c0-0.2-0.2-0.4-0.2-0.7c0.3-4.9,1.3-9.6,3-14.2  c0-0.1,0.2-0.2,0.4-0.5c1.3,1.7,2.5,3.5,4.3,4.7c1.7,1.2,3.5,2.3,5.3,3.5c-0.7,0.4-1.7,0.4-2.5,0.9c2.3,1.3,4.8,1.9,7.3,3.3  c-1.6,0.2-2.8,0.4-4.2,0.6c0.6,1.2,1.7,1.7,2.5,2.3c0.8,0.6,1.7,1.2,2.6,1.8c0.9,0.6,1.8,1.2,2.9,2c-1.5,1-3,0.6-4.4,0.8  c-0.3,0.5,0.1,0.6,0.4,0.8c1.9,1.1,4,1.6,6.1,2.2c0.8,0.2,1.7,0.5,2.6,0.7c-0.3,0.9-1,1.3-1.7,1.6c-0.6,0.3-1.3,0.6-2.2,0.9  c1.9,1.4,4.2,1.1,6.1,1.9c-1.1,1.6-1.3,1.8-3.3,3c1.5,1.1,3.4,1,5.1,2.1c-1.3,0.3-2.3,0.5-3.6,0.8c1.2,1.1,2.8,0.9,4,1.9  c-1.4,0.7-2.7,1.4-4,2c0.1,0.7,0.6,0.7,1,0.7c1,0,2.1,0,3.1-0.1c0.3,0,0.7-0.1,1.1-0.1c-0.3,1.2-1.5,1.2-2,2c1,0.7,2,1.5,3.1,2.3  c-1.6,1.9-3.7,1.3-5.7,1.4c-0.4,0.2-0.3,1.2-1.2,0.9c-0.5-0.1-1,0-1.6,0c0.6,1.7,2.7,5.3,4.2,7.2c-0.2-0.9-0.4-1.7-0.4-2.4  c0-0.7,0-1.5,0.5-2.1c2.4,0.4,2.4,0.4,3.8,2c0.2,0,0.4,0,0.6-0.1c0.2-0.1,0.4-0.2,0.5-0.3c0-0.2,0.2-0.4,0.1-0.5  c-0.7-1.1-0.7-2.2-0.3-3.4c0.2-0.6,0.3-1.3,0.5-2.1c1.6,0.9,2.7,2.1,3.6,3.6c1.3-0.5,2.4-1.4,3.6-2c-0.1-0.7-0.2-1.3-0.3-2  c0-0.7,0.1-1.3,0.1-2.1c1.6,0,3.1,0.2,4.1,1.6c0.8-0.5,1.6-0.9,2.3-1.4c0.3-1.3,0.5-2.5,0.8-3.8c1.2,0.2,2,0.9,2.9,1.3  c0.5,0.3,0.5,0.3,1.7-0.5c-1-3.5-2-7-3.1-10.7c-0.4,0.5-0.7,0.9-1,1.3c-1.2,1.5-2.5,1.7-4.1,0.8c-0.8-0.5-1.4-1.1-2.2-1.7  c-0.9,1.8-1.9,3.6-4.2,4.3c0.2-1.3,1.2-2.3,0.5-3.7c-1.9,0.5-3.7,1-5.8,0.5c0.6-1,1.6-1.6,1.7-2.8c-0.5-0.2-1-0.3-1.5-0.5  c0.8-1.7,2.4-3,2.5-5.3c-0.8,0.3-1,1-1.5,1.4c-0.5,0.4-0.9,0.8-1.4,1.1c-0.6,0.3-1.2,0.5-2,0.9c-0.1-2,1-3.6,1-5.4  c-1.2,0-1.9,1-2.9,1.2c-0.4-0.4,0-0.6,0.1-0.9c0.7-1.4,1.5-2.8,2.2-4.2c0.4-0.7,0.7-1.5,0.3-2.5c-1,0.1-2.1,0.1-3.1,0.2  c-0.4-0.5-0.1-0.8,0-1.1c0.5-1.1,1.1-2.3,1.6-3.3c-0.4-0.7-1-0.5-1.5-0.6c-0.4-0.1-0.9-0.1-1.3-0.2c-0.3-0.6,0.2-0.7,0.4-1  c0.7-0.6,1.4-1.1,2-1.8c0.7-0.7,1.2-1.5,1.3-2.5c0-0.3-0.1-0.7-0.2-1.2c-0.7,0.2-0.8,0.7-1.2,1c-0.4,0.2-0.7,0.5-1.1,0.7  c-0.5,0.2-1,0.3-1.5,0.5c-0.4,0.1-0.9,0.1-1.3,0.1c-0.5,0-1,0.2-1.5-0.4c0.4-0.6,1.1-1,1.5-1.5c0.7-0.8,1.4-1.5,2-2.4  c0.4-0.6,0.4-0.6,0.1-2c-1.2,0.1-2.4,1.3-3.9,0.3c1.9-1.6,3.9-3,5-5.2c0.3-0.7,0.6-1.5,0.9-2.2c-0.6-0.4-0.8,0.1-1,0.3  c-1.7,1.4-2.2,1.7-4.6,2.1c-0.4-0.5,0-0.8,0.2-1.2c1.1-2,2.1-4,2.6-6.2c0.2-0.9,0.3-1.9,0-3c-1.2,1-2.1,2.2-3.8,2  c-0.1-0.6,0.4-0.9,0.7-1.3c1.6-2,2.4-4.3,2.7-6.8c0-0.3-0.1-0.5-0.1-0.9c-0.5,0.1-0.9,0.2-1.5,0.3c0.5-2,1.5-3.7,1.5-5.9  c-0.9,0.6-1.6,1-2.3,1.5c-0.1-0.2-0.2-0.3-0.2-0.4c1.3-5.3,2.6-10.6,3.9-15.9c0-0.2,0.2-0.4,0.4-0.5c1.5,1,14.7,12.2,16.4,14  c-0.2,0.5-0.6,0.2-0.9,0.2c-1.4-0.3-2.9-0.7-4.2-1c-0.5,0.5-0.2,0.8,0,1.1c0.8,1.1,1.8,1.7,3,2.4c2.1,1.2,4.4,1.9,6.7,2.6  c0.5,0.1,0.9,0.4,1.5,0.6c-2.1,1.7-4.3,2-7,1.3c0.4,0.6,0.5,1,0.8,1.2c1.1,0.8,2.1,1.7,3.3,2.3c2.1,1.2,4.4,2,6.6,2.7  c0.7,0.2,1.4,0.3,2.2,0.9c-0.9,1.1-2.1,1.7-3.3,2c-1.2,0.3-2.4,0.3-3.8,0.5c2,3.4,5.2,4.5,9.2,4.6c-0.5,0.4-0.7,0.7-0.9,0.8  c-1.3,0.7-2.7,1.3-4,2c-0.5,0.2-0.9,0.5-1.4,0.8c1.2,1,1.6,1.1,5.2,1.5c1.8,0.2,3.7,0.4,5.6,0.5c-1.2,1.9-4.6,3.2-8.3,3.1  c-0.1,0.5,0.2,0.7,0.5,0.9c1.2,0.6,2.4,1.2,3.7,1.6c1.8,0.6,3.8,1,5.6,1.5c0.8,0.2,1.6,0.4,2.5,0.6c-1,2.8-3.2,3.3-5.6,3.1  c-0.3,0.5,0,0.8,0.3,1c1,0.8,2.2,1.2,3.5,1.6c0.9,0.3,1.8,0.5,2.8,0.7c-1.1,0.9-2.1,1.3-4.1,1.4c-1.4,0.1-2.8-0.1-4.3-0.2  c0.8,1,1.7,1.6,2.6,2.3c0.8,0.7,1.6,1.3,2.3,1.9c0,0.2,0,0.3,0,0.4c0,0.1-0.1,0.1-0.2,0.1c-1.2,0.2-2.4,0.3-3.8,0.5  c0.3,0.4,0.5,0.7,0.7,0.8c1.8,1.1,3.8,1.4,5.8,1.8c0.5,0.1,1,0.2,1.5,0.2c0.2,0.6-0.2,0.8-0.5,0.9c-1.2,0.4-2.4,0.8-3.6,1.1  c-0.6,0.2-1.3,0.3-2.1,0.6c1.7,1.4,3.7,2.1,5.5,3.4c-0.5,0.4-0.9,0.8-1.3,0.9c-1.1,0.4-2.2,0.5-3.3,0.3c-1.4-0.3-2.8-0.6-4.3-0.8  c-0.2,0.8-0.3,1.5-0.5,2.3c-1.3,0.6-2.8,0-4.2,0.6c0.1,1.3,0.7,2.3,1,3.4c0.3,1.1,0.8,2.1,1.2,3.2c0.4,1.1,0.7,2.3,1.3,3.2  c0.6,0.1,1.1,0,1.1-0.5c-0.2-1.6,0.6-2.7,1.4-4.1c1.3,0.7,2.3,1.5,2.8,2.9c0.5-0.2,1-0.4,1.4-0.5c-0.3-2.4-0.3-2.4,0.7-4.3  c1.9,0.5,2.1,0.7,3.4,2.5c0.1,0.1,0.5,0.1,0.8,0.2c-0.1-2.3-0.1-2.3,1.7-4.6c1.3,0.6,2,1.7,2.6,2.9c0.6,0,0.8-0.3,0.7-0.7  c-0.5-1.7,0.4-3,0.7-4.6c1.8,1,2.4,1.6,3.6,3.6c0.3-0.1,0.6-0.2,1.1-0.4c-0.2-1.5,0.5-2.7,1.3-4c1.4,0.4,2.2,1.7,3.4,2.4  c0.7-2.1,0.7-2.1,2.7-3.7c0.3,0.2,0.5,0.4,0.8,0.6c0.3,0.2,0.6,0.5,0.9,0.8c1.2,0.1,2.2,0,2.8-1.2c0.2-0.4,0.8-0.6,1.3-0.9  c0.8-0.5,1.7-1,2.5-1.5c-0.1-0.4-0.3-0.8-0.2-1.1c0.1-0.4,0.3-0.8,0.6-1.2c0.7-0.8,1.5-1.6,2.6-2.7c-0.7,0.2-1,0.2-1.2,0.3  c-0.7,0.3-1.4,0.6-2,0.9c-0.5,0.2-1.2,0.6-1.7,0c-0.4-0.5-0.2-1.1,0.1-1.7c0.1-0.1,0.1-0.3,0.1-0.4c-0.3-0.4-0.5,0-0.7,0  c-0.8,0.1-1.1-0.2-1.1-1c0-0.2,0.1-0.4,0.1-0.7c0-0.1,0-0.3,0-0.6c-0.4,0.2-0.8,0.5-1.2,0.5c-0.4,0-0.8-0.3-1.4-0.4  c-2.4,2.4-4.3,5.2-6.8,7.7c-0.9-0.8-1.2-1.7-1.8-2.7c0.5-0.5,1-1.1,1.5-1.6c2.7-2.6,5.1-5.5,7.4-8.4c3.3-4.2,6.6-8.3,9.9-12.5  c0.5-0.6,0.9-1.1,1.4-1.7c1.3,0.1,2.4,0.4,3.6,1c-0.6,1.1-1.5,1.9-2.2,2.8c-0.7,0.9-1.5,1.7-2.2,2.6c-0.8,0.9-1.6,1.8-2.4,2.8  c0.1,0.6,0.4,1.1,0.3,1.7c-0.1,0.6-0.4,1.1-0.6,1.7c-0.5,1-1,2-1.5,3c-0.2,0.3-0.3,0.6-0.2,1.1c0.9-0.8,1.9-1.6,2.8-2.4  c0.6-0.5,1.2-0.9,1.8-1.3c0.2-0.1,0.6-0.1,0.8,0.1c0.2,0.2,0.4,0.5,0.3,0.8c-0.1,0.4-0.3,0.8-0.6,1.2c-0.8,1.1-1.7,2.2-2.6,3.4  c-0.3,0.4-0.7,0.9-1.1,1.5c1,0,1.6-0.6,2.2-0.9c1.2-0.6,2.4-1.2,3.6-1.7c0.3-0.1,0.9-0.1,1,0.1c0.2,0.3,0.4,0.9,0.2,1.2  c-0.4,0.7-0.9,1.3-1.6,2.2c0.6-0.2,1-0.3,1.3-0.5c0.9-0.5,1.7-0.7,2.4,0.3c2.2-1.3,4.2-2.5,6.3-3.7c0.3-1.2,0.2-2.4,0.1-3.7  c-0.9-0.4-1.6-0.8-1.8-2c-0.2-1.5-0.6-2.9-1-4.4c-0.3-0.9-0.3-1.8-0.1-2.7c0.9-5.1,1.8-10.2,2.8-15.2c0.3-1.4,0.1-2.5-0.8-3.5  c-0.2-0.2-0.3-0.4-0.4-0.5c-3.3-4.4-3.4-4.4-7.8-7.6c-1-0.7-1.9-1.1-3.1-1c-0.6,0-1.2-0.1-1.9-0.1c0.2-0.5,0.2-0.8,0.4-1.2  c0.3-0.6,0.6-1.2,0.9-1.9c0.6,0,1.2-0.1,1.8-0.1c2.7,0,5.4,0.1,8.1,0.1c0.7,0,1.3,0,2.1-0.1c0-0.6,0.1-1.1,0.1-1.6  c-0.1-2.1-0.2-4.2-0.4-6.3c-0.1-1.4,0.1-2.7,0.7-4c1-0.3,2-0.2,3.2,0c0.3,0.9,0.5,1.9,0.8,2.8c1.2,0.3,2.5,0.2,3.7,0.1  c0.3-1.1,0.6-2,0.8-3c1.1,0,2.1,0,3.2,0c0.3,1,0.5,1.9,0.8,2.9c1.5,0,3,0,4.6,0c0.1-0.5,0.2-0.9,0.2-1.4c0.1-1.1,0.3-2.2,0.3-3.4  c0.1-1.9,0.2-3.9,0.1-5.8c-0.1-2.9-0.5-5.8-0.7-8.7c-0.1-0.7-0.2-1.2-0.9-1.7c-0.4-0.3-0.4-1.1-0.5-1.7c-0.4-2.8-0.7-5.6-1.1-8.5  c-0.1-0.9-0.2-1.8-0.3-2.8c0.9-0.1,1.7-0.2,2.7-0.3c0.7-0.8,1.5-1.7,2.2-2.6c0.8-0.9,1.6-1.8,2.3-2.7s1.6-1.8,2.3-2.7  c0.8-0.9,1.5-1.8,2.3-2.7c0.8-0.9,1.4-1.9,2.5-2.7c0.6,0.6,1.1,1.2,1.5,1.7c2.7,3.3,5.4,6.6,8.2,9.9c1.2,1.4,1.2,1.4,2.8,1.9  c0.3,1.8,0.5,10.1,0.3,12.6c-0.6,0.2-1.2,0.3-1.9,0.5c-0.3,1.8-0.2,3.5-0.2,5.2c1.6,1.3,3.6,1.8,5.3,3c0,0.5,0.1,1.1,0.1,1.7  c0,2.9,0,5.8,0,8.8c0,0.7,0.1,1.5,0.1,2.3c0.5,0.1,0.9,0.1,1.2,0.1c0.7,0,1.5,0,2.3,0c0.3-1.1,0.5-2,0.8-2.9c1-0.3,2.1-0.2,3.2-0.1  c0.5,1.3,0.8,2.6,0.8,3.9c0,2.4,0.1,4.8,0,7.2c-0.1,1.9-0.4,3.7-0.6,5.6c-0.1,0.7-0.1,1.3-0.3,2c-0.4,2.2-0.1,4.3,0.2,6.5  c0.2,1.5,0.4,3.1,0.7,4.8c-0.4,0.3-0.8,0.6-1.3,1c-0.3,4.7,1.2,9.1,2.1,13.7c0.2-0.5,0.4-1.1,0.5-1.6c0.9-3.8,1.7-7.6,2.6-11.4  c0.2-0.7,0.2-1.5,0.3-2.2c0.5-9.6,0.9-19.1,1.3-28.7c0.4-7.8,0.8-15.6,1.1-23.3c0-0.5,0.1-1,0.2-1.6c3.1-2.4,6.1-4.8,9.2-7.2  c2.2-1.7,2.1-1.7,2.5-4.4c0.4-3-0.2-6-0.7-8.9c-0.4-2.5-0.7-5-1.1-7.6c4.6-4.7,9.1-9.3,13.7-14c2.1,0.6,4,1.5,5.9,2.3  c1.9,0.7,3.7,1.6,5.7,2.2c0.3-1.4,0.2-2.7,0.1-3.9c-0.3-0.1-0.5-0.2-0.7-0.3c-0.2-0.1-0.4-0.2-0.6-0.3c0.5-1.8,1.2-3.5,2-5.3  c1.8-0.3,3.6-0.1,5.3-0.1c1.8,0,3.6,0,5.4,0c0.6-2.1,0.1-4.1,0.4-6.2c0.3-0.2,0.7-0.4,0.9-0.7c0.2-0.4,0.2-1,0.4-1.5  c0.7-3.1,0-6.3-0.2-9.4c-0.1-0.9-0.3-1.8-0.1-2.6c0.2-0.1,0.4-0.3,0.5-0.3c1.6,0.1,3-0.4,4.3-1.4c2.6-1.8,5.5-2.6,8.6-3.1  c1.6-0.3,3.3-0.4,4.9-0.4c1,0,1.9,0.2,2.9,0.5c1.8,0.6,2.7,2.1,2.5,4c-0.1,0.8-0.4,1.6-0.6,2.5c4.6,1.4,9.1,2.5,13.9,2.2  c4.3-0.3,8.6-0.7,12.9-1.4c0.2,0,0.4,0,0.9,0c-0.3,0.4-0.5,0.7-0.7,0.8c-6.6,4.8-13.9,7.9-22,8.8c-3.3,0.4-6.6,0.4-9.8-0.3  c-2.9-0.6-3.3-1.3-2.2-4.2c0.2-0.6,0.5-1.1,0.6-1.7c0.3-0.9-0.1-1.4-1.1-1.4c-0.4,0-0.8,0-1.1,0.1c-2.4,0.6-4.7,1.4-6.7,2.9  c-1.7,1.3-3.2,2.7-4.5,4.3c-0.6,0.8-0.6,0.8,0.1,1.9c0.2,0.4,0.3,0.8,0.3,1.2c0,1.2,0,2.4,0,3.6c0,0.8,0.2,1.6,0.6,2.3  c1.2,2.3,2.2,4.7,3.4,7.2c-0.9,0-1.7,0-2.5,0c-0.4,1-0.2,2.1-0.2,3.1c0,1,0,1.9,0,2.9c0,1,0,2.1,0,3.2c1.8,1,3.8,1.5,5.7,2.5  c0,0.4,0,0.8-0.1,1.3c-0.5,2.6-1.1,5.3-1.6,7.9c-0.1,0.6-0.2,1.3-0.1,2c0.4,3.7,0.8,7.4,1.2,11.2c0.1,1.2,0.5,2.1,1.2,3.1  c3.5,5.2,7,10.5,10.5,15.7c0.6,0.9,0.9,1.8,0.9,2.9c0.1,10.3,0.2,20.5,0.4,30.8c0,2.5-0.2,4.9-0.7,7.4c-1,5.5-1.6,11-1.5,16.5  c0.1,3.2,0.4,6.4,1.3,9.5c0.5,2,1.3,3.8,2.4,5.6c0.5,0.7,1.1,1.4,1.5,2c0.6,0,0.6-0.3,0.6-0.6c0.6-4.8,1.1-9.7,0.6-14.5  c-0.2-1.8-0.1-3.6-0.2-5.4c0-0.7-0.1-1.5-0.1-2.3c-1-0.7-2-1.4-3.1-2.1c0.2-0.5,0.3-1,0.5-1.5c1.7-3.5,3.4-7,5.1-10.5  c0.5-1,0.8-2.1,0.7-3.2c-0.1-1.5,0-3,0-4.5c0-0.4,0.1-0.9,0.1-1.5c1.3-0.1,2.4-0.2,3.7-0.2c1.4-2.9,2.8-5.7,4.3-8.7  c0.6,0.3,1,0.5,1.5,0.8c2.9,1.7,5.8,3.4,8.6,5.3c1.7,1.2,3.4,1.3,5.4,0.7c0.4-1.1,0.9-2.1,0.3-3.4c-0.3-0.7,0-1.6,0.1-2.4  c0.1-1,0.3-2.1,0.4-3.1c-0.4-0.4-0.8-0.7-1.2-1c-1.7-1.4-2.9-3.2-3.6-5.3c-0.8-2.5-0.5-4.8,1.2-6.7c0.8-0.9,1.7-1.6,2.6-2.4  c0.5-0.4,1-0.6,1.6-1c-0.2-0.7-0.4-1.3-0.6-1.9c-2.5-7.2-3.1-14.6-1.9-22.1c0.2-1.4,0.7-2.7,1.2-4.1c0.3-0.9,1-1.1,1.8-0.7  c1.1,0.5,2.1,1.1,3.1,1.8c2.5,1.8,4.8,3.9,6.8,6.2c1.5,1.8,3.2,2.6,5.6,2.8c3.9,0.3,7.7,1,11.6,1.5c0.7,0.1,1.3,0.1,2.1,0.2  c0.6-0.9,1.1-1.9,1.7-2.8c1.5,1,4.9,4.2,6.7,6.2c-1.3,1-3,0.8-4.4,1.8c-0.3,2.2-0.7,4.5-1,6.8c-0.4,3-0.8,5.9-1.3,8.9  c-0.1,0.9,0,1.6,0.5,2.3c1.7,2.5,3.3,5,4.9,7.6c0.9,1.5,1.6,3.1,2.2,4.7c0.7,1.8,0.3,2.4-1.6,2.8c-2.5,0.5-5.1,0.2-7.6-0.2  c-7.3-1.2-13.9-4-19.7-8.6c-0.3-0.2-0.6-0.4-1-0.7c0,0.3-0.1,0.6,0,0.8c1.1,2.9,2.2,5.9,3.4,8.7c1.7,0.4,3.3-0.1,4.9,0.4  c0,0.7,0.1,1.5,0.1,2.2c0,4,0,8.1,0,12.1c0,1.4,0.2,2.7,0.8,3.9c0.7,1.6,1.3,3.2,2,4.8c0.1,0.3,0.2,0.7,0.4,1.1  c-0.9,0.6-1.8,1.1-2.8,1.8c-0.1,13.1-0.2,26.2,0.7,39.4c0.8,0.4,1.5,0.5,2.2,0.3c0.4-0.7,0.2-1.5,0.2-2.2c-0.1-1.7-0.2-3.4-0.3-5.2  c0-0.7,0-1.3,0.4-1.9c2.1-3.3,2.5-7,2.6-10.8c0.1-4.7,0.2-9.4,0.4-14.1c0-0.4,0.1-0.7,0.1-1.2c0.4,0,0.9-0.1,1.3-0.1  c2.5,0.2,5.1,0.5,7.6,0.8c0.4,0,0.9,0.1,1.4,0.1c0.7-1.5,1.4-3,2-4.5c0.5-1.1,0.6-2.3,0.5-3.5c-0.1-1.4-0.3-2.8-0.4-4.2  c0-0.5-0.1-1-0.1-1.6c0.1-2.1,1.5-3.3,3.6-2.9c0.7,0.1,1.4,0.4,2.1,0.7c0.9,0.3,1.4,1,1.8,1.9c0.6,1.4,0.7,2.9,0.6,4.4  c0,0.7-0.1,1.5-0.1,2.1c0.8,0.5,1.6,0.4,2.3,0.5c1,0.2,2.1,0.4,3.1,0.6c0.7,0.2,1.3,0.7,1.6,1.5c0.7,2,0.9,4.1,0.5,6.2  c0,0.1-0.2,0.2-0.4,0.3c-0.2-0.2-0.6-0.4-0.7-0.7c-0.4-0.7-0.7-1.3-1-2c-0.5-1.3-1.6-1.7-2.9-1.8c-0.7,0-1.1,0.2-1.4,0.9  c-0.3,0.9-0.5,1.9-0.8,2.9c0.4,0.2,0.7,0.4,1,0.5c3.6,0.4,7.1,0.8,10.7,1.1c0.3,0,0.6,0,1-0.1c-0.1-0.5-0.2-0.9-0.4-1.3  c-0.5-0.9-0.5-1.7-0.1-2.6c0.2-0.4,0.3-0.8,0.5-1.3c0.8-0.1,1.6-0.1,2.5-0.2c0.2-1.3,0.3-2.6,0.6-3.8c0.6-2.9,0.4-5.8-0.3-8.7  c-0.5-1.8-0.7-3.7-1.1-5.5c-0.1-0.4-0.2-0.7-0.3-1.1c-0.9-0.4-1.8-0.1-2.6,0c-3.3,0.4-6.7,0.8-10.1,0.7c-0.9,0-1.8,0-2.5-0.6  c-0.3-0.8,0.1-1.5,0.5-2.1c0.7-1,1.5-2.1,2.4-2.9c3.8-3.6,8.3-5.6,13.5-5.8c4.4-0.2,8.6,0.9,12.4,3.4c0.9,0.6,1.8,1.3,2.4,2.3  c0.3,0.5,0.2,1.1-0.3,1.3c-0.7,0.4-1.5,0.7-2.3,0.9c-2.8,0.6-5.5,1.2-8.3,1.8c-0.7,0.2-1.5,0.3-2.1,0.4c-0.5,0.6-0.3,1.2-0.2,1.8  c0.5,2.8,0.9,5.6,1.5,8.4c0.2,1.1,0.2,2.1,0.1,3.1c-0.2,1.9-0.4,3.9-0.6,5.8c0,0.2,0,0.4,0,0.8c0.6,0.2,1.2,0.4,1.9,0.6  c0.2,0.4,0.4,0.9,0.5,1.4c0.2,0.5,0.1,1-0.1,1.5c-0.4,0.8-0.8,1.6-1.3,2.5c2.7,0.7,5.3,0.7,7.9,1c2.6,0.3,5.2,0.5,7.9,0.9  c2.2,10,4.1,20,6.3,29.8c0.7,0.2,0.8-0.2,1-0.5c1.2-1.8,2.5-3.6,3.7-5.4c0.3-0.4,0.6-0.8,1.2-1.1c-0.7,3.3-1.4,6.5-2.1,9.9  c0.6,0.3,1.1,0.6,1.5,0.9c0.3-0.1,0.5-0.2,0.7-0.3c2-1.5,3.9-3,5.9-4.5c0.3-0.3,0.7-0.5,1.5-1c-0.7,1.7-1.5,2.7-2.2,3.9  c-0.6,1.1-1.3,2.2-2,3.4c0.5,0.3,0.8,0.5,1.2,0.7c1.5-1.6,2.6-3.4,3.8-5c1.3-1.7,2.6-3.5,3.8-5.3c1.2-1.7,2.5-3.4,4-5.5  c-0.1,0.8-0.1,1.2-0.2,1.4c-1.8,4.2-3.5,8.4-5.3,12.6c-0.3,0.7-0.6,1.4-0.8,2.1c0.9,0.5,1.5,0.3,2.1-0.3c0.7-0.9,1.4-1.7,2.2-2.6  c0.3-0.4,0.7-0.7,1.2-1.3c0.7,1.5,0,3,0.5,4.3c0.7,0.1,1.3,0.2,2,0.2c0.3,0.4,0.6,0.8,1,1.3c2.2-0.9,4.3-1.8,6.8-2.8  c-0.8,1.3-1.7,1.8-2.4,2.5c-0.7,0.7-1.4,1.3-2.1,2c0.3,0.7,0.8,0.4,1.2,0.5c0.4,0.1,0.7,0.1,1.2,0.1c0.3,1.1,0.6,2.2,1,3.3  c1.3,0.6,2.7,0,4.1,0.4c0.3,0.8,0.6,1.6,1,2.5c1.9-1,3.3-2.5,4.9-3.7c1.5-1.2,3-2.4,4.7-3.7c0.1,0.9-0.4,1.3-0.7,1.8  c-0.3,0.5-0.7,1-1,1.5c-0.4,0.6-0.7,1.1-1.1,1.7c-0.3,0.5-0.7,1-1,1.5c-0.3,0.5-0.7,1-1,1.5c-0.3,0.5-0.6,1-0.9,1.6  c2.3,0.8,4.6,1.1,6.9,1.6c1.1-1.8,1.7-3.8,2.6-5.7c0.9-2,1.7-4,2.5-6c0.8-1.9,1.8-3.8,2.3-5.8c-1.4-0.6-2.6-1.2-3.9-1.9  c-0.2-1.3-0.4-2.4-0.6-3.9c2,3.1,2.3,3.2,5.2,3.7c0.7-1.4,1.2-2.7,0.9-4.4c-0.5-3.4-1-6.8-1.3-10.2c-0.2-1.5-0.1-3,0-4.5  c0.1-2.2,0.4-4.3,0.5-6.5c0.1-0.7,0-1.3,0-1.9c-0.7-0.9-1.8-1.2-2.7-1.7c-0.5-0.2-1-0.4-1.5-0.6c-0.8-0.2-1.1-0.8-1.3-1.6  c-0.6-0.1-1.2-0.1-2-0.2c-0.5-0.7-1.1-1.4-1.9-2.5c1.1,0.4,1.5,1.1,2.3,1.6c0.5-0.1,1.1-0.3,1.7-0.5c0-1.6,0-3.1,0-4.8  c-0.4,0.2-0.7,0.3-1,0.4c-0.4,0.2-0.8,0-0.9-0.4c-0.2-0.5-0.2-1-0.2-1.5c-0.1-1.1,0-2.2-0.2-3.4c-0.8,0-0.9,0.6-1.2,0.9  c-0.3,0.3-0.7,0.7-1.1,0.8c-0.5,0.2-1,0.1-1.6,0.1c-0.5-1.5-0.9-2.9-1.4-4.5c-1.2,0.9-1.8,2.7-3.8,2.1c-0.5-0.8-1.1-1.8-1.8-2.9  c-0.7,1.7-0.7,3.6-2.6,4.5c-0.8-0.6-1.5-1.2-2.5-2c-0.1,1.6,0.5,3.1-0.4,4.4c-0.7-0.2-1.3-0.3-2.1-0.5c-0.4,0.8-0.4,2-1.7,2.2  c-0.8-0.4-1.4-1.1-2-1.9c-2-2.5-3-5.3-3.2-8.5c-0.3-5.9,1.5-11.1,5.3-15.5c1.1-1.3,2.4-2.5,4-3.3c2.9-1.6,5.6-3.5,8.2-5.5  c1.5-1.2,3.1-2.4,4.6-3.6c1-0.8,2-1.3,3.2-1.6c0.6-0.1,1.2-0.3,1.7-0.4c2.2-0.4,4.4-0.9,6.5-1.7c3.6-1.3,7.2-1.2,10.7,0.2  c6.9,2.9,12.9,7,17.5,12.9c2.3,2.9,4.6,5.7,7.1,8.4c1.7,1.9,3.1,4,4.2,6.3c0.7,1.3,1.3,2.7,2,4c1,1.8,1.1,3.7,0.5,5.7  c-0.5,1.5-0.9,3-1.6,4.4c-1.2,2.5-2.9,4.7-5.1,6.7c-0.3-0.4-0.6-0.7-0.8-1c-0.4-0.6-0.1-1.5-0.9-2.2c-0.6,1.7-1.2,3.2-1.7,4.6  c-1.5,0.4-1.6-0.9-2.1-1.7c-0.9,0.6-1.1,1.8-2.1,2.4c-1.6-1.1-1.1-2.6-1.2-4.1c-0.9,0-1.3,0.7-1.9,1.1c-0.7,0.4-1.3,0.3-1.6-0.5  c-0.2-0.5-0.3-1-0.5-1.7c-0.3,0.5-0.6,0.8-0.8,1.2c-0.3,0.6-0.6,1.2-1,1.8c-0.8,1.1-1.9,0.9-2.6-0.3c-0.1-0.1-0.1-0.3-0.3-0.5  c-1,0.6-1.5,1.6-2.2,2.4c-0.7,0.9-1.7,1.5-2.8,1.8c-1.2,0.4-2.2-0.2-2-1.5c0-0.3,0-0.6,0-1.1c-0.4,0.2-0.7,0.2-1,0.4  c-0.7,0.4-1.3,1-2,1.4c-0.7,0.4-1.4,0.1-1.7-0.6c-0.2-0.6-0.3-1.2-0.4-1.7c-0.1-0.6,0-1.2,0-1.9c-0.8-0.3-1.2,0.3-1.8,0.5  c-0.1,0.2-0.2,0.4-0.2,0.6c-0.1,1.2-0.2,2.4-0.3,3.6c-0.1,2.1-0.2,4.2-0.4,6.3c-0.4,5.4,0.5,10.6,2.8,15.5c0.5,1.1,1,2.3,1.6,3.6  c0.4-0.2,0.8-0.3,1.2-0.5c0.4-0.2,0.8-0.3,1.3-0.5c1.7,0.7,3.4,1.5,5.1,2.2c1.9-0.9,1.9-0.9,1.2-3.4c-0.8,0.4-1.1,1.5-2.3,1.4  c-0.1-0.2-0.3-0.6-0.5-0.9c-0.2-0.3-0.3-0.6-0.5-1.1c-0.5,0.5-0.8,0.8-1.2,1.1c-0.7,0.5-1.3,0.3-1.6-0.7c0-0.1-0.1-0.3-0.1-0.4  c-0.1,0-0.3,0-0.4,0.1c-1.2,1.1-1.8,1-2.1-0.5c-0.9-3.6-0.8-7.1,0.5-10.6c0.5-1.2,1.3-2.2,2.3-3c1-0.8,2.1-1.5,3.3-1.8  c3.6-1.1,7.2-1.6,10.9-0.8c1.3,0.3,2.4,0.7,3.5,1.4c2.7,1.9,5,4.2,6.9,7c2,2.9,2,5.9,0.2,8.9c-1.4,2.4-3.3,4.4-5.9,5.7  c-0.8,0.4-0.8,0.4-2,0c0.2-0.5,0.4-1.1,0.6-1.7c-0.4,0.1-0.8,0.2-1.1,0.3c-1,0.2-1.5-0.2-1.7-1.2c-0.1-0.4,0-0.7-0.1-1.2  c-0.8,0.1-1.3,0.7-2,1c-0.6,0.3-1.1,0.8-2,0.4c-0.1-0.5-0.1-1.1-0.2-1.6c-0.2,0-0.3,0-0.4,0c-0.2,0.1-0.4,0.2-0.6,0.4  c-2.1,1.2-3,3-2.8,5.4c0.2,1.6,0.1,3.3,0.1,5c0.4,0.2,0.7,0.4,1.1,0.5c1.1,0.5,1.8,1.3,2.3,2.3c1.2,2.5,1.2,5.1,0,7.6  c-1.3,2.7-3.1,2.9-5.6,2.5c-0.4-0.1-0.7-0.3-1-0.5c-3.4-2.2-3.3-9.5,0.1-11.7c0.5-0.3,1.1-0.5,1.7-0.8c0.3-2.2,0.1-4.4,0.1-6.7  c-1.4-0.9-2.9-1.2-4.5-1.9c-1.5,0.8-3.1,1.6-4.7,2.4c-0.6,0.3-0.7,0.9-0.8,1.5c-0.5,2.1-1,4.2-1.4,6.4c-0.6,3.3-1.1,6.6-1.6,10  c-0.1,0.9-0.1,1.8-0.2,2.8c0.5,0.2,0.9,0.4,1.3,0.5c2.2,0.6,4.5,1.2,6.8,1.6c1.3,0.2,1.9,0.9,2.6,1.9c1.8,3.1,3.7,6.2,5.6,9.2  c0.4,0.6,0.8,1.3,1.2,2c1.3,0.1,2.7,0,4-0.1c5.2-0.4,10.4-0.8,15.7-1.2c4.8-0.4,9.5-0.8,14.3-1.2c4.5-0.4,9-0.7,13.4-1  c5.1-0.4,10.1-0.8,15.2-1.2c4.3-0.3,8.7-0.7,13-1c3.5-0.3,7-0.6,10.5-0.8c1.4-0.1,2.8-0.1,4.3-0.1c0,62.4,0,124.9,0,187.3  c-0.8,0-1.6,0-2.5,0c-4.4-0.5-8.8-1-13.2-1.5c-5-0.5-10-1.1-15-1.6c-3.6-0.4-7.3-0.7-10.9-1.1c-4.2-0.4-8.3-0.8-12.5-1.2  c-3.9-0.4-7.9-0.7-11.9-1.1c-4.5-0.4-9.1-0.8-13.6-1.2c-4.5-0.4-9-0.7-13.4-1.1c-5.2-0.4-10.4-0.8-15.7-1.2  c-5.1-0.4-10.2-0.7-15.2-1.1c-5.7-0.4-11.5-0.8-17.3-1.1c-6.4-0.4-12.9-0.7-19.3-1.1c-7.2-0.4-14.3-0.8-21.5-1.1  c-9-0.4-17.9-0.8-26.9-1.1c-11.7-0.4-23.3-0.9-35-1.1c-20.1-0.5-40.1-0.7-60.2-0.7c-23.4,0-46.9,0.2-70.3,1  c-11.1,0.4-22.1,0.7-33.2,1.1c-4,0.1-8.1,0.3-12.1,0.5c-7.6,0.4-15.1,0.8-22.6,1.2c-6.6,0.3-13.2,0.7-19.7,1.1  c-9,0.5-18.1,1.2-27.1,1.8c-2.5,0.2-5.1,0.4-7.6,0.6c-5.2,0.4-10.4,0.8-15.7,1.2c-4.4,0.3-8.8,0.7-13.2,1.1  c-4.5,0.4-8.9,0.8-13.4,1.2c-4,0.3-7.9,0.7-11.9,1.1c-4.2,0.4-8.3,0.8-12.5,1.2c-3.5,0.3-7,0.7-10.5,1.1c-4.9,0.5-9.8,1.1-14.7,1.6  c-4.5,0.5-8.9,1-13.4,1.5c-1.6,0.2-3.2,0.5-4.9,0.7C143.5,530.1,143.5,467.8,143.5,405.5z M279.7,384.3c0,0.1-0.1,0.3-0.1,0.4  c0,0.1,0.1,0.1,0.1,0.2c0.1-0.1,0.2-0.2,0.2-0.3C279.9,384.5,279.8,384.4,279.7,384.3c0.1-1.2-0.4-2.3-0.9-3.3  c-0.2-0.4-0.6-0.3-1,0.2c0.5,1,0.8,2.2,1.7,3.1C279.5,384.3,279.6,384.3,279.7,384.3z M499.9,555.7c0.1-0.2,0.1-0.3,0.1-0.3  c-0.6-16.9-1.2-33.8-1.8-50.7c0-0.1,0.1-0.1,0.1-0.2c0,0,0.1-0.1,0.3-0.1c3.9,9.3,7.8,18.7,11.7,28.1c3.9,9.4,7.7,18.8,11.7,28.2  c8.5-0.6,16.9-1.5,25.4-2.1c0.5,0,1-0.2,1.6-0.3c0-0.6,0.1-1.2,0.1-1.8c0-2.1,0-4.2,0-6.3c-0.3-36.1-0.5-72.2-0.8-108.3  c0-5.2,0-10.5-0.1-15.7c0-0.6-0.1-1.3-0.1-1.9c-2.1-0.4-21-0.5-30.6-0.2c-0.4,0-0.9,0.1-1.3,0.2c-0.2,0.9-0.1,1.7,0,2.5  c0.1,1.3,0.2,2.7,0.3,4c0.3,4.6,0.7,9.1,1,13.7c0.4,5,0.8,10,1.2,15c0.4,5.1,0.8,10.1,1.2,15.2c0.2,3.1,0.5,6.3,0.7,9.4  c0,0.3,0.2,0.8-0.4,0.9c-1.3-3.3-2.6-6.5-4-9.8c-1.3-3.3-2.7-6.7-4-10c-1.3-3.3-2.6-6.5-3.9-9.8c-1.3-3.3-2.7-6.7-4-10  c-1.3-3.3-2.6-6.5-4-9.8c-1.4-3.3-2.6-6.7-4.1-9.9c-0.5,0-0.8,0-1,0c-8.6,1.7-17.2,3.5-25.7,5.2c-0.3,0.1-0.5,0.2-1,0.4  c0,0.9,0,1.9,0,2.9c0,39.5,0,79.1,0,118.6c0,0.6,0,1.2,0,1.8c0,0.4,0.1,0.8,0.2,1.2C470.7,556,497.9,556,499.9,555.7z M376.4,507.5  c0.2-0.3,0.4-0.4,0.5-0.6c5.8-4.8,9.6-11,11.8-18.2c3.1-9.7,3.2-19.6,0.7-29.5c-1.9-7.8-5.4-14.9-10.9-20.9  c-7.1-7.8-15.8-12.1-26.5-11.9c-6,0.1-12,0-18,0c-7,0-13.9,0-20.9,0c-0.7,0-1.5-0.2-2.3,0.3c-0.2,0.9-0.1,1.9-0.1,2.8  c0,41.8,0,83.7,0,125.5c0,0.6,0,1.2,0,1.8c0,0.4,0.2,0.8,0.2,1.2c1.9,0.2,26.9,0.4,31.8,0.2c0.4,0,0.7-0.1,1.2-0.2  c0.1-1.1,0.2-2.1,0.2-3.2c0-1,0.1-1.9,0.1-2.9c0-1,0-2.1,0.1-3.1c0-1,0-1.9,0.1-2.9c0-1,0.1-2.1,0.2-3.1c0-1,0.1-2.1,0.1-3.1  c0-1,0-1.9,0.1-2.9c0-1,0-2.1,0.1-3.1c0-1,0.1-2.1,0.1-3.1c0-1,0.1-1.9,0.1-2.9c0-1,0.1-2.1,0.1-3.1c0-1,0-1.9,0.1-2.9  c0-1,0-2,0.3-3.4c0.6,0.9,0.7,1.6,0.9,2.3c3.9,13.5,7.9,27,11.8,40.5c0.2,0.7,0.5,1.4,0.7,2.1c0.5,0,0.8,0,1.2,0  c10.9-0.9,21.8-1.8,32.6-2.8c0.1,0,0.2-0.2,0.4-0.3c0.1-1-0.4-1.8-0.7-2.7c-5.2-15.9-10.4-31.8-15.6-47.8  C376.8,508.8,376.6,508.1,376.4,507.5z M306.1,493.9c0-7.9-0.4-15.4-1.3-22.8c-0.7-5.3-1.7-10.5-3.2-15.6  c-1.6-5.3-3.8-10.4-7.1-14.9c-4.9-6.8-11.3-11.2-19.4-13.2c-7.7-1.9-15.4-1.8-23.1,0.1c-5.5,1.4-10.3,3.9-14.5,7.8  c-3.4,3.2-6.1,7-8.2,11.2c-2.6,5.2-4.2,10.7-5.4,16.4c-1.7,8.2-2.3,16.6-2.6,25c-0.3,9.2,0,18.4,1.2,27.6c0.7,5.4,1.7,10.8,3.3,16  c1.7,5.5,3.9,10.7,7.3,15.3c4.8,6.7,11.2,11.2,19.2,13.2c7.2,1.8,14.5,1.9,21.8,0.2c8.6-1.9,15.3-6.5,20.4-13.7  c2.5-3.5,4.3-7.3,5.8-11.3c2.7-7.1,4-14.5,4.8-22.1C305.9,506.5,306.2,500,306.1,493.9z M729.3,510.2c0.1-0.6,0.1-0.9,0.1-1.2  c0-9.4,0-18.9,0-28.3c0-0.4-0.1-0.7-0.2-1.2c-0.9,0-1.7-0.1-2.5-0.1c-5.5,0-11.1,0-16.6,0c-0.7,0-1.5,0.2-2.2-0.3  c-0.2-1.7-0.4-15.3-0.2-19.8c0-0.4,0.1-0.7,0.2-1.2c0.5-0.1,0.9-0.2,1.4-0.2c4.9-0.2,9.9-0.3,14.8-0.5c2.6-0.1,5.2-0.2,7.9-0.3  c0.4,0,0.8-0.1,1.2-0.2c0.2-1.6,0.3-34.5,0.2-37.2c0-0.3-0.1-0.6-0.2-0.9c-0.6,0-1.2,0-1.8,0c-5.4,0.4-10.9,0.9-16.3,1.3  c-6.4,0.5-12.8,1-19.2,1.5c-6.9,0.6-13.9,1.1-20.8,1.7c-0.4,0-0.7,0.1-1.2,0.2c0,0.7-0.1,1.4-0.1,2.1c-0.2,34.2-0.1,140.6,0.2,142.4  c0.2,0.1,0.4,0.2,0.6,0.2c19.2,1.4,38.4,2.8,57.6,4.2c0.4,0,0.7,0,1.3-0.1c0-2.4,0-4.7,0-7c0-2.4,0-4.8,0-7.2c0-2.3,0-4.6,0-7  c0-2.4,0-4.8,0-7.2c0-2.3,0.2-4.6-0.2-7c-0.9,0-1.7,0-2.5,0c-6.7,0-13.3,0-20,0c-0.7,0-1.5-0.1-2.1-0.1c-0.1-0.3-0.2-0.4-0.2-0.6  c0-0.6-0.1-1.2-0.1-1.8c0-7.9,0-15.9,0.1-23.8c0-0.1,0-0.2,0.1-0.2c0-0.1,0.1-0.1,0.4-0.3c2.1-0.1,4.4,0,6.7,0c2.2,0,4.5,0,6.7,0  C724.5,510.2,726.8,510.3,729.3,510.2z M193.5,477.3c-0.1-0.6-0.1-0.9-0.1-1.2c0-7.9,0-15.9,0-23.8c0-0.3,0.1-0.7,0.2-1.2  c3,0,5.9,0,8.8,0c2.8,0,5.7,0,8.5,0c2.9,0,5.8,0,8.7,0c0.1-0.4,0.3-0.5,0.3-0.8c0.1-0.9,0.2-1.8,0.3-2.7c0.2-2.4,0.4-4.8,0.6-7.2  c0.7-7.1,1.4-14.3,2-21.4c0.1-0.8,0.3-1.6-0.1-2.4c-1.8-0.3-38.9-0.5-62.4-0.2c-0.7,0-1.3,0.1-2,0.1c-0.5,1.1-0.3,2-0.3,3  c0,51.3,0,102.7,0,154c0,0.5,0,1,0,1.6c0,0.4,0.1,0.8,0.2,1.3c0.4-0.1,0.7-0.1,1-0.1c11-2,21.9-4.1,32.9-6.1  c0.3-0.1,0.7-0.3,1.1-0.5c0-0.9,0-1.7,0-2.5c0-15.3,0-30.7,0-46c0-2.8,0-5.7,0-8.5c0-0.5,0.1-1,0.2-1.6c1.9,0,3.7,0,5.5,0  c1.9,0,3.7,0,5.6,0c1.8,0,3.6,0,5.4,0c1.9,0,3.7,0.1,5.7-0.1c0.1-0.7,0.1-1.3,0.1-1.9c0.1-2.8,0.1-5.7,0.1-8.5  c0.1-7,0.3-13.9,0.4-20.9c0-0.7,0.2-1.5-0.3-2.3C208.6,477.3,201.2,477.3,193.5,477.3z M596.4,437c-0.3,2.1-0.4,25.4-0.2,32  c0,0.4,0.1,0.9,0.2,1.4c0.8,0,1.5,0.1,2.3,0.1c4.7,0,9.4,0,14.1,0c0.7,0,1.3,0.1,2,0.1c0.3,1.1,0.2,2.1,0.2,3c0,29.6,0,59.3,0,88.9  c0,0.7,0,1.5,0,2.2c0,0.4,0.2,0.8,0.3,1.3c0.5,0,1,0.1,1.4,0.1c10.8,0,21.6,0,32.3-0.1c0.1,0,0.1,0,0.2-0.1c0.1,0,0.1-0.1,0.3-0.3  c0.3-0.8,0.1-1.8,0.1-2.8c0-30.9,0-61.8,0-92.8c0-0.7,0-1.5,0-2.2c0-0.4,0.2-0.8,0.3-1.3c3.3-0.1,6.4,0,9.5-0.1  c3.2,0,6.4,0.1,9.7-0.1c0-0.9,0.1-1.7,0.1-2.5c0-7.1,0-14.2,0-21.3c0-2.7,0-5.4,0-8.1c0-0.5-0.2-1-0.2-1.4  C665.9,433.1,598.7,436.7,596.4,437z M410.3,460.4c0.3,1.1,0.2,2,0.2,3c0,30.2,0,60.5,0,90.7c0,0.7,0,1.3,0,2c0,0.4,0.1,0.8,0.2,1.4  c0.9,0,1.7,0.1,2.5,0.1c8.3,0,16.6,0,24.9,0c1.9,0,3.7,0,5.6,0c0.4,0,0.8-0.2,1.4-0.3c0-1.1,0-2,0-3c0-28.2,0-56.4,0-84.7  c0-0.7,0-1.5,0-2.2c0-0.4,0.1-0.7,0.2-1.2c0.8,0,1.5-0.1,2.3-0.1c4.9,0,9.7,0,14.6,0c0.6,0,1.4,0.2,1.9-0.3c0.3-2.2,0.2-31.5,0-33.2  c-0.1-0.1-0.2-0.2-0.4-0.2c-23.3-1.9-46.5-3.8-69.8-5.7c-0.4,0-0.7,0-1.1,0c-0.1,0-0.1,0-0.2,0.1c-0.1,0-0.1,0.1-0.3,0.2  c0,0.4-0.1,0.8-0.1,1.3c0,10.2,0,20.4,0,30.5c0,0.5,0.1,1,0.2,1.6c2.1,0,4,0,5.9,0c2,0,4,0,6.1,0  C406.3,460.3,408.3,460.3,410.3,460.4z M591.7,562c0.3-1,0.2-2,0.2-2.9c0-41.9,0-83.8,0-125.7c0-0.6,0-1.2,0-1.8  c0-0.4-0.2-0.8-0.3-1.3c-11.6,0-23,0-34.5,0c-0.2,0-0.4,0.1-0.7,0.2c-0.3,0.9-0.1,1.9-0.1,2.9c0,41.9,0,83.8,0,125.7  c0,0.6,0,1.2,0,1.8c0,0.4,0.2,0.8,0.3,1.3c11.5,0,22.9,0,34.2,0C591.1,562.2,591.4,562.1,591.7,562z M260.8,404.4  c0.4-0.2,0.6-0.3,0.8-0.4c5.4-3.8,11-7.2,16.8-10.3c0.2-0.1,0.4-0.4,0.7-0.6c-0.3-0.5-0.7-1-1-1.6c-0.9,1.3-2.1,2.1-3.3,2.9  c-0.2-0.1-0.4-0.2-0.6-0.3c-0.3-0.1-0.5-0.3-0.7-0.4c-1.8,0.9-3.7,1.5-5.3,2.5c0.1,0.4,0.2,0.8,0.3,1.2c-1.1,0.6-2.1,1.2-3.2,1.8  c-0.5-0.5-0.9-0.9-1.3-1.3c-0.3,0.3-0.5,0.5-0.7,0.7c0.2,0.6,0.4,1,0.7,1.6c-1.1,0.7-2,1.6-3.3,1.8c-1.3-1.6-1.3-1.6-2.1-1.4  C259.2,401.9,259.9,403.1,260.8,404.4z M525.5,272.8c0.5,0.2,0.8,0.4,1.3,0.7c0.6-0.5,1.4-0.8,1.8-1.6c-0.3-0.9-0.9-1.1-1.7-1.1  c-3.7-0.1-7.3-0.2-11-0.3c-0.2,0-0.5,0.2-0.9,0.3c1.4,1.7,2.7,3.2,4.1,4.8c2.1-0.4,4.1-0.9,6.1-1.3  C525.3,273.7,525.4,273.3,525.5,272.8z M287.3,389.4c0.7-0.3,1.2-0.5,1.7-0.7c5.4-2.3,10.9-4.3,16.4-6.1c0.8-0.3,1.6-0.5,2.4-0.7  c0.6-0.2,1.2-0.6,1.3-1.5c-0.5,0-1,0.1-1.6,0.1c-0.3-0.8-0.6-1.6-1-2.8c-0.3,0.6-0.7,0.8-0.6,1.1c0,0.6,0.2,1.3,0.4,2.1  c-1.2,0.4-2.4,0.7-3.6,1.1c-0.2-0.5-0.4-0.9-0.6-1.3c-0.1-0.4-0.3-0.7-0.8-0.5c-0.4,0.1-0.3,0.4-0.3,0.7c0.1,0.6,0.2,1.1,0.2,1.7  c-1.2,0.6-2.3,0.9-3.6,1.1c-0.3-0.6-0.5-1.1-0.8-1.6c-0.6-0.1-1,0-1,0.6c0,0.6,0.5,1.1,0,1.8c-1.1,0.2-2.1,0.8-3.4,0.7  c-0.3-0.5-0.5-0.9-0.8-1.4c-0.9,0.9,0.4,1.6-0.3,2.5c-0.9,0.4-2,0.9-3.2,1.1c-0.3-0.6-0.6-1.2-1-1.8c-0.3,0.1-0.5,0.1-0.7,0.2  c-0.2,0.1-0.3,0.3-0.4,0.5C286.6,387.4,286.9,388.3,287.3,389.4z M527.7,277.6c-0.9,1.8-1.8,3.7-2.7,5.7c1,1.3,1.8,2.5,2.8,3.6  c0.1,0.2,0.3,0.3,0.6,0.5c0.2-0.4,0.3-0.7,0.4-1c0.8-3.2,1.6-6.4,2.3-9.6c0.1-0.3,0.1-0.6,0.1-0.9c0-0.7-0.2-1.2-1-1.3  c-0.5,0.5-1,1.1-1.4,1.6c0.1,0.5,0.1,0.8,0.2,1.2C528.6,277.4,528.2,277.5,527.7,277.6z M272.4,391.9c-1.4-1.9-2.8-3.7-4.4-5.3  c-1.4,0.9-2.7,1.7-4.1,2.5c1.1,1.9,1.9,3.7,3.2,5.3C268.9,393.5,270.6,392.7,272.4,391.9z M501.3,288.3c-2.1,0.7-3.7,1.9-4.1,4.2  c-0.2,1.2,0.3,2.4,0.8,3.4c0.4,0.7,0.8,1.6,1.8,1.9c0.5-2.5,0.9-4.8,1.4-7.1c0.1-0.7,0.2-1.3,0.3-2  C501.5,288.7,501.4,288.5,501.3,288.3z M541.8,335.1c-0.9-0.4-1.6-0.2-2.2,0.1c-1.4,0.7-2.4,1.9-3.4,3.3c2.2,0.5,4.3,0.6,6.5,0.8  C542.5,337.7,542.3,336.4,541.8,335.1z M332.1,310.9c1.7,1.8,3,3.3,4.6,4.6c0.1,0.1,0.3-0.1,0.5-0.1c-0.2-1.4,0.1-2.9-0.5-4.5  C335.3,310.8,333.9,310.7,332.1,310.9z M521,278c0.7,1,1.3,1.9,2.2,2.7c1.3-1.4,2.6-2.7,3.5-4.2c-0.2-0.3-0.3-0.5-0.4-0.6  c-0.2-0.1-0.4-0.2-0.6-0.3C524.1,276.2,522.5,276.9,521,278z M277.4,389.8c-1.2-2.5-2.2-4.7-3.4-6.9c-0.8,0.6-1.6,0.7-2.1,1.6  c1.2,1.8,2.7,3.5,4.1,5.2C276.2,389.9,276.7,389.8,277.4,389.8z M639.7,343.3c-0.9-0.9-1.7-1.5-2-2.6c-0.4-1.1,0.1-2,0.4-3  c-0.4-0.3-0.7-0.5-1-0.6c-0.8,0.5-1.2,1.1-1.2,1.9c0,1.1,0,2.2,0,3.4c1,0.4,1.9,0.7,2.8,1C639,343.4,639.3,343.4,639.7,343.3z   M656.4,385.7c-0.9,0.7-1.2,1.6-1.2,2.7c0,1,0.2,1.9,1.2,2.5C658.2,389.3,658.2,387.3,656.4,385.7z M259.2,391.9  c0.7,1.6,1.7,2.9,2.6,4.3c0.2,0.4,0.6,0.2,1.3-0.5c-0.8-1.4-1.7-2.9-2.6-4.5C260,391.5,259.7,391.7,259.2,391.9z M284.8,378.6  c-1.2,0.3-1.4,0.4-1.1,1c0.4,1.3,0.9,2.5,1.4,3.7c0.1,0.4,0.4,0.7,0.8,0.6c0.2,0,0.5-0.2,0.8-0.4C286,381.9,285.4,380.3,284.8,378.6  z M303.7,371.5c0.2,1.6,0.8,3,1.2,4.4c0,0.1,0.1,0.1,0.1,0.2c0.2,0.1,0.4,0.1,0.6,0.1c0.1,0,0.3-0.1,0.3-0.2  c0.1-0.2,0.2-0.4,0.1-0.6c-0.3-1.4-0.6-2.7-1-4c-0.3,0-0.4-0.1-0.5-0.1C304.4,371.2,304.2,371.3,303.7,371.5z M288.5,377  c0.8,1.8,1.1,3.6,2.3,5.3c0.2-0.4,0.5-0.7,0.5-0.9c-0.3-1.6-0.6-3.2-1.3-4.8C289.5,376.7,289.2,376.8,288.5,377z M309,369.7  c0.1,0.7,0.2,1.3,0.4,2c0.2,0.7,0.3,1.4,0.6,2.1c0.1,0.2,0.5,0.4,0.7,0.4c0.2-0.1,0.4-0.4,0.5-0.6c0.1-0.2,0-0.4-0.1-0.6  c-0.3-1.1-0.6-2.3-1-3.4c0-0.1-0.2-0.2-0.4-0.3C309.6,369.4,309.3,369.5,309,369.7z M296.4,379.5c-0.5-1.5-0.9-2.9-1.3-4.3  c-0.1-0.2-0.5-0.3-0.7-0.3c-0.1,0-0.3,0.4-0.3,0.5c0.4,1.4,0.7,2.8,1.1,4.2c0,0.1,0.4,0.3,0.5,0.3C296,380,296.1,379.7,296.4,379.5z   M504.5,298.2c0.7-1.3,0.7-1.4,0.7-3.7c-0.6-0.4-1.2-0.7-2.1-0.4c0.3,1.1,0.6,2,0.9,3C504.2,297.5,504.4,297.8,504.5,298.2z   M301.3,378c-0.5-1.5-0.8-2.8-1.2-4.1c-0.1-0.3-0.3-0.5-0.4-0.8c-0.2,0.1-0.6,0.2-0.6,0.3c-0.1,0.8,0.8,4,1.3,4.6  C300.5,378.1,300.8,378,301.3,378z M249.7,397.6c0.7,1.3,1.5,2.3,2.3,3.2c0.1,0.1,0.5,0.1,1.2,0.1c-0.9-1.4-1.6-2.5-2.5-3.4  C250.5,397.3,250.1,397.5,249.7,397.6z M257.4,398.6c0.6-0.3,0.7-0.5,0.5-0.8c-0.7-1.1-1.3-2.1-2-3.2c-0.1-0.1-0.3-0.1-0.5-0.2  c0,0.2-0.1,0.4,0,0.5C255.9,396.1,256.6,397.3,257.4,398.6z M256.4,406.7c0.1-0.1,0.2-0.2,0.3-0.3c-0.7-1.2-1.4-2.4-2.2-3.6  c-0.3-0.4-0.6-0.2-0.8,0.4C254.6,404.3,255.5,405.5,256.4,406.7z M315.3,367.1c-0.7,0.2-1,0.3-1.4,0.4c0.2,0.6,0.4,1.1,0.7,1.9  C314.8,368.5,315,368,315.3,367.1z M311.8,376.5c-0.1-0.1-0.1-0.1-0.2-0.1c-0.3,0.1-0.6,0.1-0.8,0.2c-0.1,0.2-0.1,0.6,0,0.8  c0.2,0.3,0.5,0,0.7-0.3C311.6,376.9,311.7,376.7,311.8,376.5z"/>
<path d="M347.2,490.7c-0.3-2-0.3-34.3,0-36.1c1.2-0.4,2.2,0.1,3.2,0.6c1.9,0.8,3.3,2.3,4.4,4c1.2,2.1,1.9,4.4,2.3,6.7  c0.7,4.8,0.7,9.5-0.4,14.2c-0.5,2.3-1.3,4.4-2.6,6.4c-1.1,1.6-2.5,2.9-4.4,3.8C348.9,490.6,348.2,491,347.2,490.7z"/>
<path d="M269.6,494.4c-0.2,7.2-0.3,14.4-0.6,21.5c-0.1,4.1-0.5,8.2-1.3,12.3c-0.2,1.1-0.5,2.2-0.8,3.3c-0.1,0.5-0.3,1-0.6,1.5  c-0.5,1-1,1.9-2.2,2c-1.2,0-1.8-0.9-2.3-1.9c-0.3-0.6-0.6-1.2-0.7-1.9c-0.2-0.8-0.4-1.6-0.6-2.4c-0.7-3.4-1.1-7-1.2-10.5  c-0.3-6.2-0.4-12.4-0.5-18.6c-0.1-6.1,0-12.1,0.1-18.2c0.1-5.4,0.3-10.8,0.9-16.1c0.3-2.3,0.8-4.6,1.2-6.8c0.2-0.8,0.5-1.6,0.9-2.3  c0.5-1,1.1-1.9,2.3-1.8c1.2,0,1.8,1,2.3,1.9c0.4,0.8,0.7,1.7,0.9,2.5c0.7,2.5,1,5.1,1.3,7.7c0.6,6.8,0.8,13.6,0.9,20.4  c0,2.5,0,4.9,0,7.4C269.5,494.4,269.5,494.4,269.6,494.4z"/>
</svg>